<svg width="470" height="300" viewBox="0 0 470 300" fill="none" xmlns="http://www.w3.org/2000/svg">
<path d="M392.301 284.21H375.034V300H392.301V284.21Z" fill="#F0F0F0"/>
<path d="M470 132.631C470.007 156.44 463.83 179.812 452.116 200.293C440.402 220.774 423.584 237.609 403.427 249.031C402.285 249.679 401.127 250.31 399.964 250.921C395.65 253.2 391.213 255.217 386.674 256.963C384.866 257.668 383.039 258.324 381.194 258.931C381.016 258.995 380.833 259.058 380.656 259.11C362.585 265.056 343.463 266.758 324.679 264.093C305.894 261.427 287.918 254.461 272.055 243.7C269.927 242.258 267.843 240.752 265.803 239.184C264.65 238.295 263.513 237.389 262.39 236.458C259.216 233.847 256.169 231.081 253.249 228.158C240.835 215.799 230.962 200.965 224.225 184.548C217.488 168.131 214.027 150.471 214.049 132.631C214.049 59.3789 271.343 0 342.024 0C412.705 0 470 59.3789 470 132.631Z" fill="#F2F2F2"/>
<path d="M372.586 194.526L369.702 205.831L380.656 259.11C351.211 268.722 319.411 267.027 291.073 254.336L299.625 217.173L299.909 197.015L300.839 130.547L301.072 130.421C301.087 130.411 301.102 130.404 301.118 130.399L322.904 118.805L360.495 117.831L388.542 131.989L388.329 132.815L372.586 194.526Z" fill="#3F3D56"/>
<path d="M387.955 291.654C387.092 290.589 386.464 289.341 386.117 287.998C385.77 286.654 385.711 285.248 385.944 283.878C386.178 282.508 386.699 281.209 387.47 280.07C388.24 278.931 389.243 277.982 390.406 277.288L384.304 244.074L399.953 250.833L403.348 281.337C404.343 283.44 404.559 285.847 403.956 288.104C403.352 290.361 401.971 292.31 400.073 293.581C398.176 294.853 395.894 295.359 393.661 295.004C391.427 294.649 389.397 293.457 387.955 291.654Z" fill="#9E616A"/>
<path d="M382.888 133.023L386.904 131.668C386.904 131.668 399.641 140.14 398.429 160.622C398.429 160.622 398.906 171.221 398.45 178.275C397.927 186.365 404.935 266.763 404.935 266.763H382.239L372.511 193.956L382.888 133.023Z" fill="#3F3D56"/>
<path d="M369.723 81.4887C369.723 86.83 368.195 92.0513 365.332 96.4923C362.469 100.933 358.399 104.395 353.638 106.439C348.876 108.483 343.637 109.018 338.582 107.976C333.527 106.934 328.884 104.362 325.24 100.585C321.596 96.8079 319.114 91.9959 318.109 86.7573C317.103 81.5187 317.619 76.0888 319.592 71.1541C321.564 66.2195 324.904 62.0017 329.189 59.0343C333.474 56.0669 338.512 54.483 343.666 54.483H343.666C347.079 54.4742 350.461 55.1622 353.618 56.5078C356.774 57.8534 359.645 59.8303 362.064 62.3255C364.484 64.8207 366.406 67.7855 367.72 71.0504C369.034 74.3154 369.715 77.8166 369.723 81.3542C369.723 81.399 369.723 81.4439 369.723 81.4887Z" fill="#9E616A"/>
<path d="M317.695 45.2155C320.747 38.4127 326.655 39.7577 331.821 42.0636C338.363 40.5596 344.585 36.0569 351.634 38.7198C358.578 49.1862 381.89 46.1068 376.931 63.1462C376.924 67.2292 384.344 64.8526 383.049 71.5396C386.979 84.4087 368.861 108.781 358.46 103.648C361.033 98.7626 366.909 87.665 357.996 86.5643C338.824 105.052 356.018 51.3589 331.929 66.9738C323.953 74.5389 313.033 52.7824 317.695 45.2155Z" fill="#2F2E41"/>
<path d="M357.571 261.845L315.975 253.307L326.641 197.497C341.359 203.266 355.224 206.112 368.236 206.035C356.864 223.319 351.698 241.879 357.571 261.845Z" fill="#E4E4E4"/>
<path d="M351.522 265.122L309.927 256.584C306.513 231.301 309.617 212.265 320.593 200.774C335.311 206.544 349.176 209.39 362.188 209.312C355.313 227.066 351.696 245.993 351.522 265.122Z" fill="#1C5AA3"/>
<path d="M323.963 249.576C323.798 248.196 323.343 246.87 322.63 245.692C321.917 244.513 320.964 243.511 319.837 242.756C318.71 242 317.436 241.511 316.107 241.32C314.777 241.13 313.424 241.245 312.142 241.655L292.824 214.409L286.946 230.889L306.191 254.236C307 256.422 308.554 258.226 310.56 259.304C312.565 260.383 314.883 260.661 317.074 260.087C319.264 259.513 321.176 258.125 322.445 256.188C323.715 254.251 324.255 251.899 323.963 249.576Z" fill="#9E616A"/>
<path d="M306.643 131.985L303.143 129.536C303.143 129.536 282.322 131.545 278.037 151.579C278.037 151.579 274.905 163.616 273.467 170.527C272.727 174.081 262.86 208.421 262.86 208.421L296.319 246.316L305.461 232.106L296.319 208.421L306.643 131.985Z" fill="#3F3D56"/>
<path d="M17.2665 66.5891H0V82.3786H17.2665V66.5891Z" fill="#1C5AA3"/>
<path d="M54.3383 129.747H37.0718V145.537H54.3383V129.747Z" fill="#1C5AA3"/>
<path d="M81.2542 237.641H63.9878V253.431H81.2542V237.641Z" fill="#1C5AA3"/>
<path d="M64.1127 30.3418C63.6009 30.3418 63.11 30.5525 62.7481 30.9276C62.3862 31.3027 62.1829 31.8114 62.1829 32.3419C62.1829 32.8723 62.3862 33.381 62.7481 33.7561C63.11 34.1312 63.6009 34.3419 64.1127 34.3419H205.014C205.525 34.3407 206.014 34.1294 206.375 33.7545C206.736 33.3795 206.939 32.8715 206.939 32.3419C206.939 31.8122 206.736 31.3042 206.375 30.9292C206.014 30.5543 205.525 30.343 205.014 30.3418H64.1127Z" fill="#E4E4E4"/>
<path d="M64.1127 42.3421C63.8591 42.3413 63.6078 42.3923 63.3733 42.4922C63.1388 42.592 62.9255 42.7389 62.7457 42.9242C62.566 43.1096 62.4232 43.3298 62.3256 43.5724C62.228 43.815 62.1775 44.0751 62.177 44.3379C62.1765 44.6007 62.2259 44.861 62.3225 45.104C62.4191 45.347 62.561 45.5679 62.74 45.754C62.919 45.9402 63.1317 46.0879 63.3658 46.1888C63.5999 46.2897 63.851 46.3418 64.1045 46.3422H153.184C153.695 46.3422 154.186 46.1314 154.548 45.7564C154.91 45.3813 155.113 44.8725 155.113 44.3421C155.113 43.8117 154.91 43.3029 154.548 42.9278C154.186 42.5528 153.695 42.3421 153.184 42.3421H64.1127Z" fill="#E4E4E4"/>
<path d="M45.8312 174.026C45.3194 174.026 44.8285 174.236 44.4666 174.611C44.1047 174.987 43.9014 175.495 43.9014 176.026C43.9014 176.556 44.1047 177.065 44.4666 177.44C44.8285 177.815 45.3194 178.026 45.8312 178.026H186.732C187.243 178.025 187.733 177.813 188.094 177.438C188.455 177.063 188.658 176.555 188.658 176.026C188.658 175.496 188.455 174.988 188.094 174.613C187.733 174.238 187.243 174.027 186.732 174.026H45.8312Z" fill="#E4E4E4"/>
<path d="M45.8309 186.026C45.5773 186.025 45.3261 186.076 45.0916 186.176C44.857 186.276 44.6438 186.423 44.464 186.608C44.2842 186.793 44.1415 187.014 44.0439 187.256C43.9463 187.499 43.8958 187.759 43.8953 188.022C43.8947 188.285 43.9442 188.545 44.0408 188.788C44.1374 189.031 44.2792 189.252 44.4583 189.438C44.6373 189.624 44.8499 189.772 45.0841 189.873C45.3182 189.974 45.5692 190.026 45.8228 190.026H134.902C135.414 190.026 135.904 189.815 136.266 189.44C136.628 189.065 136.832 188.556 136.832 188.026C136.832 187.495 136.628 186.987 136.266 186.612C135.904 186.237 135.414 186.026 134.902 186.026H45.8309Z" fill="#E4E4E4"/>
<path d="M126.069 276.657C125.557 276.657 125.067 276.867 124.705 277.243C124.343 277.618 124.139 278.126 124.139 278.657C124.139 279.187 124.343 279.696 124.705 280.071C125.067 280.446 125.557 280.657 126.069 280.657H266.97C267.481 280.656 267.971 280.444 268.332 280.069C268.693 279.694 268.896 279.186 268.896 278.657C268.896 278.127 268.693 277.619 268.332 277.244C267.971 276.869 267.481 276.658 266.97 276.657H126.069Z" fill="#E4E4E4"/>
<path d="M126.069 288.657C125.816 288.656 125.564 288.707 125.33 288.807C125.095 288.907 124.882 289.054 124.702 289.239C124.523 289.425 124.38 289.645 124.282 289.887C124.185 290.13 124.134 290.39 124.134 290.653C124.133 290.916 124.182 291.176 124.279 291.419C124.376 291.662 124.518 291.883 124.697 292.069C124.876 292.255 125.088 292.403 125.322 292.504C125.556 292.605 125.808 292.657 126.061 292.657H215.14C215.652 292.657 216.143 292.446 216.505 292.071C216.867 291.696 217.07 291.188 217.07 290.657C217.07 290.127 216.867 289.618 216.505 289.243C216.143 288.868 215.652 288.657 215.14 288.657H126.069Z" fill="#E4E4E4"/>
<path d="M8.11985 74.5545C12.2563 73.6131 16.1694 71.824 19.629 69.2924C23.0886 66.7609 26.0249 63.538 28.2651 59.8132C29.537 57.6955 30.5621 55.429 31.3189 53.0611C31.3761 52.865 31.3576 52.6536 31.2673 52.4714C31.177 52.2892 31.022 52.1505 30.8349 52.0844C30.6479 52.0184 30.4434 52.0302 30.2645 52.1174C30.0857 52.2046 29.9465 52.3604 29.8764 52.5518C28.5778 56.5095 26.5281 60.1579 23.8482 63.282C21.1682 66.4061 17.9121 68.9429 14.2716 70.7428C12.2203 71.7586 10.0595 72.5175 7.83498 73.0034C6.87539 73.2131 7.15823 74.7647 8.11985 74.5545Z" fill="#3F3D56"/>
<path d="M22.9634 56.0854C25.7096 54.4825 28.4559 52.8796 31.2022 51.2766C31.3294 51.2028 31.6856 50.9232 31.8186 50.9566C31.712 50.9298 31.8088 51.0117 31.812 51.1117C31.8162 51.2462 31.8326 51.3829 31.8375 51.5184C31.8673 52.3496 31.8819 53.1817 31.9041 54.0132L32.0318 58.7948C32.0587 59.8013 33.5792 59.921 33.552 58.9027L33.4021 53.2894C33.3677 52.003 33.6782 49.1497 31.6671 49.3964C30.9414 49.4854 30.2704 50.0123 29.6514 50.3736L27.1439 51.8371L22.3081 54.6596C21.4565 55.1567 22.1081 56.5845 22.9634 56.0854V56.0854Z" fill="#3F3D56"/>
<path d="M45.8618 137.585C41.7674 138.699 37.929 140.65 34.5723 143.323C31.2156 145.996 28.4083 149.337 26.3153 153.151C25.1272 155.318 24.1915 157.624 23.5279 160.02C23.482 160.219 23.5126 160.429 23.6131 160.606C23.7137 160.782 23.8763 160.911 24.0669 160.965C24.2574 161.02 24.4609 160.996 24.6344 160.897C24.8079 160.799 24.9379 160.635 24.997 160.44C26.1468 156.43 28.0594 152.699 30.6221 149.468C33.1848 146.236 36.3458 143.568 39.9188 141.622C41.9309 140.526 44.0619 139.682 46.2668 139.108C47.2169 138.859 46.8143 137.336 45.8618 137.585L45.8618 137.585Z" fill="#3F3D56"/>
<path d="M31.7352 156.659L23.7739 161.746C23.6374 161.833 23.5033 161.928 23.3613 162.006C23.2203 162.083 23.0754 162.081 23.1665 162.173C23.0436 162.048 23.075 161.584 23.0658 161.443L22.9107 159.056L22.6006 154.284C22.535 153.275 21.011 153.268 21.077 154.284L21.4411 159.887C21.524 161.162 21.2947 163.803 23.1792 163.696C24.0182 163.648 24.8176 162.934 25.5052 162.495L27.7799 161.041L32.5042 158.023C33.3373 157.49 32.573 156.124 31.7352 156.659V156.659Z" fill="#3F3D56"/>
<path d="M72.0592 244.898C75.9639 245.958 79.6245 247.816 82.8251 250.365C86.0258 252.914 88.7017 256.101 90.6953 259.738C91.8191 261.786 92.7033 263.965 93.3291 266.23C93.3882 266.426 93.5182 266.59 93.6917 266.688C93.8652 266.786 94.0687 266.81 94.2592 266.756C94.4497 266.701 94.6124 266.572 94.7129 266.396C94.8135 266.22 94.844 266.01 94.7982 265.811C93.5963 261.604 91.5952 257.689 88.9124 254.295C86.2297 250.902 82.9194 248.098 79.1762 246.049C77.0489 244.886 74.7958 243.989 72.4643 243.376C71.5133 243.127 71.1077 244.649 72.0592 244.898Z" fill="#3F3D56"/>
<path d="M85.8216 263.812L90.5459 266.831L92.8206 268.284C93.51 268.724 94.3063 269.438 95.1466 269.485C97.0306 269.592 96.8018 266.952 96.8847 265.676L97.2488 260.073C97.3147 259.059 95.7909 259.063 95.7253 260.073L95.4151 264.846L95.2668 267.128C95.2555 267.303 95.2996 267.818 95.1593 267.963C95.2595 267.859 95.1551 267.908 95.0433 267.838C94.8807 267.736 94.7142 267.639 94.5519 267.535L86.5906 262.449C85.7537 261.914 84.9876 263.279 85.8216 263.812Z" fill="#3F3D56"/>
<path d="M34.5328 45.0095C38.4594 45.0095 41.6426 41.7106 41.6426 37.6411C41.6426 33.5716 38.4594 30.2727 34.5328 30.2727C30.6062 30.2727 27.4231 33.5716 27.4231 37.6411C27.4231 41.7106 30.6062 45.0095 34.5328 45.0095Z" fill="#1C5AA3"/>
<path d="M22.3451 189.395C26.2717 189.395 29.4548 186.096 29.4548 182.026C29.4548 177.957 26.2717 174.658 22.3451 174.658C18.4185 174.658 15.2354 177.957 15.2354 182.026C15.2354 186.096 18.4185 189.395 22.3451 189.395Z" fill="#1C5AA3"/>
<path d="M99.0284 291.852C102.955 291.852 106.138 288.553 106.138 284.483C106.138 280.414 102.955 277.115 99.0284 277.115C95.1018 277.115 91.9187 280.414 91.9187 284.483C91.9187 288.553 95.1018 291.852 99.0284 291.852Z" fill="#1C5AA3"/>
</svg>
