<svg width="856" height="545" viewBox="0 0 856 545" fill="none" xmlns="http://www.w3.org/2000/svg">
<path d="M835.016 326.188C834.01 327.649 832.962 329.086 831.879 330.514C790.375 385.192 693.827 419.149 531.002 401.177C438.551 390.487 399.178 429.697 361.054 469.86C360.402 470.553 359.75 471.247 359.088 471.94C319.163 514.057 279.636 556.291 180.801 542.252C76.0249 529.724 11.3613 465.392 1.35523 396.709C1.23336 395.873 1.12334 395.03 1.02358 394.195C-4.59775 349.664 12.7748 303.555 57.095 268.745C83.8664 247.724 121.903 236.558 161.165 236.909C172.986 237.076 184.802 236.413 196.462 234.93C199.035 234.587 201.531 234.211 203.961 233.786C253.98 225.142 277.029 199.444 291.166 168.084C291.497 167.34 291.829 166.597 292.149 165.845C324.608 91.0567 309.598 -13.9146 486.063 1.52755C643.973 10.3301 759.86 76.5416 816.704 152.934C817.268 153.702 817.831 154.47 818.383 155.239C834.007 176.435 845.156 199.347 851.427 223.146C851.781 224.482 852.101 225.818 852.399 227.154C860.439 262.632 855.171 297.116 835.016 326.188Z" fill="#F2F2F2" fill-opacity="0.6"/>
</svg>
